<svg xmlns="http://www.w3.org/2000/svg" viewBox="0 0 4371.06 2700.51"><defs><style>.cls-1{font-size:619.17px;font-family:Zian;}</style></defs><title>Asset 1</title><g id="Layer_2" data-name="Layer 2"><g id="Layer_1-2" data-name="Layer 1"><path d="M2444.11,242.42Q2351,0,2199,0H2156.5q-97.24,0-175.27,93.13L1321.09,1397q-13.17,24.65-25.11,47.47l807.67-556.1q32.91-66.06,67.93-136.43,1.74,1.4,35,65.57l392.21-270Q2526.1,404,2444.11,242.42ZM1181.36,1713.34v30.11q0,26,12.35,69.89Q1274.51,1964,1399.14,1964h34.24q86.25,0,167.1-80.79,25.83-37.73,429.24-846.41l-735.18,410.49Q1181.36,1664.07,1181.36,1713.34ZM2666.53,681.17,2254.74,911.1q118.74,232.06,407.15,802.24Q2756.41,1964,2909.78,1964h35.59q21.93,0,57.54-8.21,164.34-75.32,164.37-200v-74Q3150.22,1636.58,2666.53,681.17Z"/><text class="cls-1" transform="translate(0 2574.13)">alpha axon</text></g></g></svg>